<svg xmlns="http://www.w3.org/2000/svg" version="1.1" xmlns:xlink="http://www.w3.org/1999/xlink" xmlns:svgjs="http://svgjs.dev/svgjs" width="2000" height="1500" viewBox="0 0 2000 1500"><rect width="2000" height="1500" fill="#ffffff"></rect><g transform="matrix(0.4444444444444444,0,0,0.4444444444444444,555.5556208333335,250)"><svg viewBox="0 0 320 360" data-background-color="#000000" preserveAspectRatio="xMidYMid meet" height="2250" width="2000" xmlns="http://www.w3.org/2000/svg" xmlns:xlink="http://www.w3.org/1999/xlink"><g id="tight-bounds" transform="matrix(1,0,0,1,0.000023499999997511622,0)"><svg viewBox="0 0 320 360" height="360" width="320"><g><svg></svg></g><g><svg viewBox="0 0 320 360" height="360" width="320"><g><path transform="translate(-74.99272,-51.79039) scale(4.65793,4.65793)" d="M20.6 59.9l0.8 1-0.4-1.3c-0.1-0.6-0.8 0.1-0.4 0.3M21.5 59.3c0.3 0.5 0.6 1 0.6 1.5 0 0.7 0.6 1 1.1 1.2-0.7-0.8-1.1-3-1.7-2.7M59.9 16.9c1.7 0 3.3-0.2 5.1 0.2 4.4 1.1 8.1 3.3 10.6 6.4l7 11.2c0.3 2.8 0.9 5.9 0.8 9.3 0.7 0 0.6-1 1.4-1.2-0.8 2-1.2 4.5-1.4 7.4-0.5-1.6 0-4 0.1-5.3-0.7 1.1-1.1 0.3-1.1-0.2 0.1-0.8-0.3-0.7-0.6-1-1.1-1-1.8-2.1-2.6-3.8 0.5-1.3 0.6-3.2-1-4.2-0.5-0.3-1.1-0.8-1.4-1.6-0.4-1.1-1.1-2.4-0.9-4.1 0.1-0.5-1.5 1.1-2.4 0.4-3.9-2.7-7.8-5.8-12.5-8.4-2.5 0-4.3-0.9-5.2-2-0.8-1-0.2-2.3 1-2.4 0.7 0 1.5-0.2 2.1 0.2 0.1-0.4 0.5-0.9 1-0.9M50 14.6l0.2 0.1c1 0.2 1.5 1.6 2.6 1.1 0 0.7 0.1 1.4-0.1 1.9-0.3 0.8-1.2 0.8-1.9 0.8-6.7-0.4-10.6 2.4-14.7 4.8-1.1 0.7-2.3 1.2-3.2 2.1-4.3 4-9 7.7-10.1 15.1l-0.9 8.2c-0.1 0.9-1.1 1.8-0.9 2.9l0.7 4.9c-0.7-0.7-1.1 0.2-0.9 0.6 0.1 0.3 0.5 1.3 1.1 0.4 0.8 1.5 1.6 4.4 2.7 5.7 3.4 4 7.8 7.6 11.4 11.2 0.9-0.2 1.6-0.2 1.8-0.8 0.3 0.6-0.3 1.2-0.8 1.3 1.6 1 3.4 1.9 5.8 2.1 3.1 0.2 6 0.7 8.7 1.4 1.4-0.4 2.8-0.6 4.3-0.7 0.5 0 0.8-0.8 1.4-1l0.1-1c0.6 0.9 0.5-0.3 0.1-0.9 0.7 0.6 0.9 1.1 1.2 1.5 0-0.3 0.8-1.4 0.8-0.1l0.2-1.3c0.3-0.2 0.4 1.1 0.7 0.2 0.3-0.9 0.9-0.2 1.5-0.5-0.2 0.4-0.1 1.2 0.6 0.7l0.8-0.7c0.5 1.2 1.3 0.7 1.7 0.5 4.4-2.8 8.8-6.1 13-9.4l-0.1 1.3 0.5-1.6c0.5 0.5 0.9 0.1 1.1-0.2 0.6-1 1.4-2 2.7-2.9-1.6 4.3-3.5 7.7-5.9 10.5l-1 1.2c0 0.7-0.2 1.6-1 1.7-0.4 0.1-1.2-0.2-1.8 0.4-0.3 0.4 0.7 1.2-0.1 0.6-0.7-0.5-1.4 0-2.2 0.2-0.6 0.2 0.4 0.8 0.6 1.2 0.2 0.4 0.4 0.8 0.3 1.3l-1.1-1.2c-1.3 0.7-2.1 2-3.2 3-0.5 0.4-0.3 1.1-0.3 1.7-0.7 0-1.5-0.2-1.9 0.2-0.3 0.4-0.2 1-0.2 1.6-1-0.1-1.1-1.6-2-1.3-0.9 0.2-1.9 0.3-2.7 0.8 0.6 1.2-1 0.5-0.8 0.7-1.5-0.9-2.8-1.6-4.4-1-3.4-1.1-7.6-0.6-10.7-0.2 0-0.5 0.1-1-0.1-1.1-0.2 0.5-0.8 0.3-0.7 0.3-1.9-1.3-3.8-2.1-5.8-3.2-1.8 0.2-3.5-0.7-4-1.2-1.4-1.3-3-0.6-4.3-0.9-2.8-0.7-3.8-3.6-4.1-5.6-0.2-1-1-1.4-1.3-1.3-1.3-4.2-3.3-8-4.9-11.9-0.4-1-0.3-2-0.3-3.1 0.5 0.2 1 0.1 0.9-0.6-0.5-3.3-1.7-5.8-3-8.2 0.7-3.4 0.8-7.4 2.4-10.4 1.4-2.7 4-4.1 5.8-6.4 0.6-0.8 0.6-1.9 1.2-2.6 2-2 4-4.1 6.2-5.9 1-0.8 2.2 0 3.7-0.3 0.5-1.8 2.5-3.4 4.4-2.9 0.8 0.2 2.4-1.9 2.9-2.1 0.8-0.3 0.4 0.8 0.4 1.5 1.9-1.5 4.5-2.3 6.9-3.2" fill="#000000" fill-rule="nonzero" stroke="none" stroke-width="1" stroke-linecap="butt" stroke-linejoin="miter" stroke-miterlimit="10" stroke-dasharray="" stroke-dashoffset="0" font-family="none" font-weight="none" font-size="none" text-anchor="none" style="mix-blend-mode: normal" data-fill-palette-color="tertiary"></path></g><g transform="matrix(1,0,0,1,105.07313403525524,90)"><svg viewBox="0 0 109.85373192948951 180" height="180" width="109.85373192948951"><g><svg viewBox="0 0 109.85373192948951 180" height="180" width="109.85373192948951"><g><svg viewBox="0 0 192 314.60014505636104" height="180" width="109.85373192948951"><g transform="matrix(1,0,0,1,0,137.2440035464134)"><svg viewBox="0 0 192 177.3561415099476" height="177.3561415099476" width="192"><g id="textblocktransform"><svg viewBox="0 0 192 177.3561415099476" height="177.3561415099476" width="192" id="textblock"><g><svg viewBox="0 0 192 127.37007874015747" height="127.37007874015747" width="192"><g transform="matrix(1,0,0,1,0,0)"><svg width="192" viewBox="3.85 -33.7 50.8 33.7" height="127.37007874015747" data-palette-color="#ffffff"><path d="M12.55-30.2L12.55-30.2 7.9-30.2 7.9-16.75 13-16.75Q16.45-16.75 18.28-18.63 20.1-20.5 20.1-23.45L20.1-23.45Q20.1-30.2 12.55-30.2ZM13.15-13.3L12.75-13.3 7.9-13.3 7.9 0 3.85 0 3.85-33.7 12.3-33.7Q18.15-33.7 21.18-30.95 24.2-28.2 24.2-23.35L24.2-23.35Q24.1-19.85 22.35-17.4 20.6-14.95 17.4-13.95L17.4-13.95 26.25 0 21.4 0 13.15-13.3ZM41.1-16.65L54.65 0 49.4 0 36.1-16.65 48.95-33.7 53.95-33.7 41.1-16.65ZM35.3-33.7L35.3 0 31.25 0 31.25-33.7 35.3-33.7Z" opacity="1" transform="matrix(1,0,0,1,0,0)" fill="#000000" class="wordmark-text-0" data-fill-palette-color="primary" id="text-0"></path></svg></g></svg></g><g transform="matrix(1,0,0,1,0,145.9564301102362)"><svg viewBox="0 0 192 31.3997113997114" height="31.3997113997114" width="192"><g transform="matrix(1,0,0,1,0,0)"><svg width="192" viewBox="4.5 -33.25 207.88 34" height="31.3997113997114" data-palette-color="#ffffff"><path d="M8-10L8 0 4.5 0 4.5-32.5 12.05-32.5Q15.95-32.5 17.98-30.65 20-28.8 20-25.5L20-25.5 20-17Q20-13.65 18-11.83 16-10 12.05-10L12.05-10 8-10ZM16.5-17L16.5-17 16.5-25.5Q16.5-27.4 15.35-28.45 14.2-29.5 12.05-29.5L12.05-29.5 8-29.5 8-13 12.05-13Q16.5-13 16.5-17ZM44.25-26.25L44.25-26.25 44.25-6.25Q44.25-2.9 42.12-1.07 40 0.75 35.77 0.75 31.55 0.75 29.4-1.07 27.25-2.9 27.25-6.25L27.25-6.25 27.25-26.25Q27.25-29.6 29.37-31.43 31.5-33.25 35.72-33.25 39.95-33.25 42.1-31.43 44.25-29.6 44.25-26.25ZM40.75-6.25L40.75-6.25 40.75-26.25Q40.75-30.25 35.75-30.25 30.75-30.25 30.75-26.25L30.75-26.25 30.75-6.25Q30.75-2.25 35.75-2.25 40.75-2.25 40.75-6.25ZM57-22.85L57 0 53.5 0 53.5-32.5 55-32.5 56.45-28.8Q58.05-33.25 61.55-33.25L61.55-33.25Q67.5-33.25 67.5-26.75L67.5-26.75 67.5-23.5 64.15-23.5 64.15-26.95Q64.15-30.25 61.4-30.25L61.4-30.25Q59.75-30.25 58.37-28.35 57-26.45 57-22.85L57-22.85ZM72.74-5.75L72.74-32.5 83.74-32.5 83.74-29.5 76.24-29.5 76.24-5.55Q76.24-4.15 76.97-3.2 77.69-2.25 79.02-2.25 80.34-2.25 81.04-3.18 81.74-4.1 81.74-5.55L81.74-5.55 81.74-11.5 85.24-11.5 85.24-5.75Q85.24-2.6 83.57-0.93 81.89 0.75 79.04 0.75 76.19 0.75 74.47-0.93 72.74-2.6 72.74-5.75L72.74-5.75ZM108.49-26.25L108.49-26.25 108.49-6.25Q108.49-2.9 106.37-1.07 104.24 0.75 100.02 0.75 95.79 0.75 93.64-1.07 91.49-2.9 91.49-6.25L91.49-6.25 91.49-26.25Q91.49-29.6 93.62-31.43 95.74-33.25 99.97-33.25 104.19-33.25 106.34-31.43 108.49-29.6 108.49-26.25ZM104.99-6.25L104.99-6.25 104.99-26.25Q104.99-30.25 99.99-30.25 94.99-30.25 94.99-26.25L94.99-26.25 94.99-6.25Q94.99-2.25 99.99-2.25 104.99-2.25 104.99-6.25ZM121.24-15L121.24 0 117.74 0 117.74-32.5 131.49-32.5 131.49-29.5 121.24-29.5 121.24-18 129.49-18 129.49-15 121.24-15ZM154.74-26.25L154.74-26.25 154.74-6.25Q154.74-2.9 152.61-1.07 150.49 0.75 146.26 0.75 142.04 0.75 139.89-1.07 137.74-2.9 137.74-6.25L137.74-6.25 137.74-26.25Q137.74-29.6 139.86-31.43 141.99-33.25 146.21-33.25 150.44-33.25 152.59-31.43 154.74-29.6 154.74-26.25ZM151.24-6.25L151.24-6.25 151.24-26.25Q151.24-30.25 146.24-30.25 141.24-30.25 141.24-26.25L141.24-26.25 141.24-6.25Q141.24-2.25 146.24-2.25 151.24-2.25 151.24-6.25ZM176.63 0L163.98 0 163.98-32.5 167.48-32.5 167.48-3 176.63-3 176.63 0ZM186.13-32.5L186.13 0 182.63 0 182.63-32.5 186.13-32.5ZM212.38-26.25L212.38-26.25 212.38-6.25Q212.38-2.9 210.25-1.07 208.13 0.75 203.9 0.75 199.68 0.75 197.53-1.07 195.38-2.9 195.38-6.25L195.38-6.25 195.38-26.25Q195.38-29.6 197.5-31.43 199.63-33.25 203.85-33.25 208.08-33.25 210.23-31.43 212.38-29.6 212.38-26.25ZM208.88-6.25L208.88-6.25 208.88-26.25Q208.88-30.25 203.88-30.25 198.88-30.25 198.88-26.25L198.88-26.25 198.88-6.25Q198.88-2.25 203.88-2.25 208.88-2.25 208.88-6.25Z" opacity="1" transform="matrix(1,0,0,1,0,0)" fill="#000000" class="slogan-text-1" data-fill-palette-color="secondary" id="text-1"></path></svg></g></svg></g></svg></g></svg></g><g transform="matrix(1,0,0,1,36.672,0)"><svg viewBox="0 0 118.656 118.65765217633466" height="118.65765217633466" width="118.656"><g><svg xmlns="http://www.w3.org/2000/svg" xmlns:xlink="http://www.w3.org/1999/xlink" version="1.1" x="0" y="0" viewBox="14.091000000000001 14 71.81799999999998 71.819" enable-background="new 0 0 100 100" xml:space="preserve" height="118.65765217633466" width="118.656" class="icon-icon-0" data-fill-palette-color="accent" id="icon-0"><g fill="#ffffff" data-fill-palette-color="accent"><path d="M50 85.819c-19.8 0-35.909-16.109-35.909-35.91C14.091 30.109 30.2 14 50 14c19.801 0 35.909 16.109 35.909 35.909C85.909 69.71 69.801 85.819 50 85.819zM50 18c-17.595 0-31.909 14.314-31.909 31.909 0 17.596 14.314 31.91 31.909 31.91s31.909-14.314 31.909-31.91C81.909 32.314 67.595 18 50 18z" fill="#000000" data-fill-palette-color="accent"></path></g></svg></g></svg></g><g></g></svg></g></svg></g></svg></g></svg></g><defs></defs></svg><rect width="320" height="360" fill="none" stroke="none" visibility="hidden"></rect></g></svg></g></svg>