<?xml version="1.0" standalone="no"?>
<!DOCTYPE svg PUBLIC "-//W3C//DTD SVG 20010904//EN"
 "http://www.w3.org/TR/2001/REC-SVG-20010904/DTD/svg10.dtd">
<svg version="1.0" xmlns="http://www.w3.org/2000/svg"
 width="900.000000pt" height="940.000000pt" viewBox="0 0 900.000000 940.000000"
 preserveAspectRatio="xMidYMid meet">

<g transform="translate(0.000000,940.000000) scale(0.100000,-0.100000)"
fill="#000000" stroke="none">
<path d="M4813 7843 c-16 -6 -17 -40 -1 -45 8 -3 8 -13 3 -34 l-9 -29 -4 33
c-3 29 -6 32 -37 32 -34 0 -35 -2 -47 -87 -1 -7 -6 -13 -11 -13 -5 0 -22 -14
-38 -31 -20 -22 -34 -29 -48 -24 -11 3 -22 2 -25 -4 -6 -9 -28 -4 -111 27 -61
22 -85 35 -85 44 0 4 -7 8 -15 8 -8 0 -15 4 -15 10 0 5 -7 6 -17 3 -11 -4 -14
-3 -9 5 5 8 2 10 -8 6 -10 -4 -18 1 -22 10 -13 33 -114 64 -114 35 0 -5 -4 -7
-10 -4 -5 3 -10 -1 -10 -10 0 -9 5 -13 10 -10 6 3 11 -4 12 -17 0 -13 2 -35 3
-51 1 -15 4 -29 6 -30 49 -34 94 -58 126 -67 25 -8 46 -22 56 -39 9 -15 35
-46 59 -67 24 -22 49 -52 57 -67 8 -15 20 -27 28 -27 16 0 17 -26 1 -36 -6 -4
-24 7 -41 26 -22 25 -39 34 -63 35 -22 0 -34 -4 -34 -12 0 -7 -9 -13 -21 -13
-14 0 -18 -4 -12 -12 4 -7 6 -23 5 -34 -2 -15 20 -46 75 -103 43 -44 83 -81
90 -81 6 0 9 -8 6 -19 -3 -10 0 -22 6 -25 14 -9 14 -43 0 -52 -6 -3 -34 6 -62
22 -29 15 -47 21 -41 13 6 -8 14 -24 17 -37 4 -17 1 -22 -11 -21 -9 1 -25 -2
-35 -6 -12 -5 -32 -2 -53 9 -19 9 -41 16 -48 16 -12 0 -48 25 -108 75 -44 36
-109 57 -212 69 -46 6 -75 13 -151 37 -16 6 -42 12 -58 14 -15 2 -32 7 -39 11
-6 4 -49 10 -97 14 -47 4 -97 10 -111 14 -14 3 -38 9 -55 13 -52 13 -79 9 -90
-12 -15 -29 -109 -45 -287 -48 -40 0 -55 -4 -49 -11 13 -16 6 -61 -9 -58 -7 1
-18 -3 -26 -9 -10 -8 -18 -8 -26 -1 -12 10 -28 8 -128 -14 -19 -4 -50 -20 -68
-36 -18 -15 -39 -28 -47 -28 -15 0 -42 -19 -79 -55 -28 -28 -74 -47 -78 -34
-2 7 -15 8 -38 1 -30 -9 -31 -10 -10 -11 22 -1 20 -4 -19 -26 -24 -14 -54 -37
-65 -50 -12 -14 -27 -25 -34 -25 -9 0 -11 -7 -7 -20 4 -12 2 -20 -5 -20 -6 0
-9 3 -7 8 7 10 -15 27 -33 27 -20 -1 -60 -36 -60 -53 0 -8 -6 -12 -13 -9 -8 3
-20 1 -28 -5 -11 -8 -10 -9 4 -4 11 3 17 0 17 -9 0 -8 3 -14 8 -14 4 1 19 1
35 0 31 -1 38 -21 7 -21 -12 0 -20 -7 -20 -17 0 -15 -2 -16 -10 -3 -8 13 -10
13 -10 1 0 -8 -10 -25 -22 -38 -17 -18 -18 -23 -6 -23 17 0 31 -24 21 -34 -4
-3 -11 -2 -17 3 -8 6 -15 1 -23 -16 -11 -23 -10 -25 7 -20 11 3 20 1 20 -4 0
-12 -34 -29 -64 -31 -15 -1 -26 -8 -26 -14 0 -6 -9 -14 -21 -17 -11 -3 -23
-15 -26 -26 -3 -12 -9 -21 -14 -21 -5 0 -22 -19 -39 -41 -23 -32 -27 -45 -19
-55 16 -19 -11 -28 -63 -21 -23 3 -36 2 -29 -2 19 -12 16 -160 -4 -180 -10
-10 -15 -11 -15 -3 0 7 5 12 11 12 5 0 7 5 3 12 -5 8 -13 4 -25 -11 -11 -13
-23 -19 -30 -15 -9 5 -10 2 -6 -9 4 -11 2 -14 -7 -11 -8 3 -17 1 -20 -5 -4 -6
-13 -8 -21 -4 -11 3 -13 1 -9 -10 3 -8 1 -18 -5 -21 -6 -4 -8 -13 -4 -21 3 -8
0 -15 -6 -15 -6 0 -11 -7 -11 -15 0 -8 -4 -15 -9 -15 -5 0 -15 -16 -22 -37
-10 -32 -9 -38 6 -49 18 -14 24 -62 9 -73 -5 -3 -11 -19 -13 -36 -6 -53 -11
-40 -11 28 0 37 -3 67 -6 67 -7 0 -34 -27 -34 -34 0 -3 7 -3 15 0 8 4 15 1 15
-5 0 -6 -7 -11 -15 -11 -8 0 -15 -9 -15 -20 0 -11 -4 -20 -8 -20 -14 0 -42
-69 -31 -75 5 -4 7 -11 4 -16 -4 -5 12 -9 34 -9 29 0 41 4 41 14 0 19 123 17
142 -1 9 -10 8 -13 -10 -13 -12 0 -22 -4 -22 -10 0 -5 -9 -10 -20 -10 -11 0
-20 -4 -20 -8 0 -4 -16 -14 -35 -21 -32 -11 -35 -16 -35 -52 0 -37 2 -39 20
-29 11 6 25 8 30 5 6 -4 14 4 19 17 9 21 10 21 12 3 1 -11 3 -30 4 -42 1 -13
-1 -23 -5 -23 -4 0 -7 -7 -7 -15 0 -8 9 -15 19 -15 23 0 13 -12 -42 -50 -19
-13 -38 -29 -42 -35 -5 -7 -8 -6 -8 1 0 7 -29 -16 -65 -50 -53 -50 -62 -62
-47 -68 9 -4 12 -7 5 -7 -7 -1 -10 -7 -7 -15 3 -7 -2 -16 -10 -19 -9 -4 -16
-13 -16 -21 0 -8 -7 -22 -17 -31 -10 -10 -12 -19 -6 -23 5 -4 12 -23 16 -43 5
-35 4 -37 -26 -43 -25 -5 -29 -9 -17 -16 12 -7 12 -12 2 -22 -7 -7 -12 -40
-12 -85 0 -58 -3 -73 -15 -73 -9 0 -15 -9 -15 -23 0 -14 6 -24 15 -24 9 0 15
10 15 24 0 20 5 23 35 23 40 0 41 -3 20 -44 -9 -16 -13 -35 -11 -43 3 -7 -2
-16 -10 -21 -15 -8 -21 -33 -31 -135 -4 -39 -1 -51 13 -62 18 -13 18 -14 2
-15 -14 0 -18 -9 -18 -40 0 -29 -4 -40 -15 -40 -16 0 -21 -25 -6 -35 5 -3 12
4 16 15 5 16 15 20 47 20 32 0 38 -3 30 -13 -15 -17 -34 -93 -35 -139 -1 -34
-18 -55 -36 -44 -3 2 -5 -13 -3 -34 3 -28 8 -37 18 -33 8 3 21 0 28 -6 12 -10
15 -8 18 8 3 17 5 18 22 6 16 -12 17 -18 7 -44 -9 -21 -10 -35 -2 -49 6 -11 8
-22 5 -25 -3 -3 3 -12 15 -19 12 -7 21 -21 21 -30 0 -10 6 -18 13 -18 24 0 47
-36 46 -71 -2 -119 3 -232 11 -209 6 20 8 13 9 -30 0 -30 -3 -50 -7 -43 -4 6
-5 -36 -4 -94 3 -75 0 -108 -8 -113 -9 -6 -10 -15 -2 -36 l10 -29 1 33 c1 32
1 32 51 32 28 0 50 -3 51 -7 0 -5 3 -17 6 -28 2 -11 7 -51 9 -89 3 -56 1 -71
-12 -81 -35 -25 24 -177 74 -190 13 -3 22 -13 22 -24 0 -11 11 -29 26 -40 14
-11 26 -23 27 -28 1 -4 7 -7 14 -5 7 2 13 -5 13 -14 0 -30 33 -94 48 -94 8 0
21 8 28 18 9 11 13 13 14 4 0 -7 7 -20 15 -28 10 -10 15 -35 15 -73 0 -47 4
-61 23 -79 23 -22 64 -31 52 -12 -3 6 1 10 9 10 9 0 15 -3 15 -7 -4 -24 4 -33
26 -33 19 0 25 -5 25 -22 1 -29 29 -82 30 -55 0 37 20 4 21 -36 1 -23 3 -34 6
-25 8 30 22 20 33 -23 10 -36 14 -40 38 -37 15 2 26 9 25 15 -2 7 11 22 27 35
19 13 32 34 36 55 7 36 15 37 78 7 31 -15 46 -11 46 12 0 8 10 14 25 14 18 0
26 7 31 25 10 40 43 30 104 -30 44 -44 57 -52 68 -42 9 10 10 25 1 67 -16 79
-16 82 1 87 13 4 13 3 0 -6 -12 -9 -11 -11 7 -11 26 0 44 -15 159 -129 46 -46
84 -89 84 -96 0 -21 48 -61 112 -94 34 -17 63 -30 64 -28 3 4 -85 190 -118
249 -7 13 -17 26 -23 30 -7 5 -6 8 1 8 15 0 49 -40 149 -173 126 -168 306
-329 575 -511 47 -32 101 -75 120 -96 55 -59 112 -83 200 -85 76 -1 150 -19
150 -36 0 -14 58 -11 63 4 2 8 25 12 69 11 40 0 65 4 65 10 -1 58 3 66 26 56
31 -14 136 -28 158 -23 13 4 19 0 19 -12 0 -13 3 -15 13 -7 12 10 100 30 152
35 22 1 31 8 35 27 4 18 13 26 34 28 l29 4 -28 14 c-15 8 -33 14 -40 14 -16 0
-75 48 -75 61 0 13 64 11 78 -3 15 -15 194 -58 207 -50 5 4 28 7 50 7 30 0 41
4 43 18 2 10 -3 17 -13 17 -9 0 -22 6 -30 13 -15 15 -26 79 -16 95 3 6 58 12
121 15 63 2 101 3 84 0 -29 -4 -32 -8 -38 -50 -3 -25 -2 -52 4 -61 5 -10 10
-12 10 -4 0 6 5 12 11 12 5 0 7 -5 3 -12 -4 -6 -3 -8 3 -5 6 4 44 7 85 8 74 2
75 3 76 30 0 19 -6 29 -21 34 -54 19 -61 24 -24 19 26 -3 42 0 53 11 8 8 28
15 43 15 16 0 34 7 41 15 7 8 21 15 31 15 11 0 19 5 19 11 0 6 -7 8 -16 5 -11
-4 -18 1 -21 14 -3 11 -9 20 -14 20 -16 0 -10 38 7 44 22 9 24 8 24 -11 0 -11
3 -14 8 -7 4 6 17 14 29 18 16 5 22 2 26 -11 3 -13 8 -8 21 20 9 20 22 37 29
37 8 0 8 -3 -2 -9 -9 -6 -10 -14 -4 -26 12 -21 24 -21 35 -1 6 11 17 14 34 10
17 -4 24 -2 22 6 -2 7 4 14 12 16 70 17 70 17 70 -5 0 -11 4 -21 10 -21 5 0 9
5 7 11 -2 12 9 15 83 25 64 8 77 13 62 23 -9 5 -5 11 13 19 21 10 25 9 25 -3
0 -8 7 -15 15 -15 8 0 15 7 15 15 0 9 6 12 15 9 9 -4 15 0 15 9 0 8 -5 17 -10
19 -16 5 0 68 17 68 8 0 13 6 10 13 -3 7 18 23 52 39 54 26 55 26 23 27 -22 1
-31 5 -26 12 5 9 -6 10 -40 7 -30 -4 -46 -2 -46 6 0 6 -5 4 -10 -4 -5 -8 -10
-10 -10 -5 0 6 -5 3 -10 -5 -7 -12 -10 -8 -10 15 l0 31 -77 -9 c-43 -4 -87 -9
-98 -11 -144 -23 -218 -28 -226 -15 -6 11 -60 16 -182 18 -34 1 -47 5 -45 13
8 24 105 66 223 98 66 18 172 50 235 72 135 46 258 64 299 44 28 -13 62 -10
73 7 5 8 17 8 42 0 24 -7 38 -8 42 -1 3 5 15 8 25 5 10 -3 17 0 16 7 -1 6 8
10 21 9 13 -2 22 3 22 11 0 8 7 16 15 20 9 3 15 0 15 -9 0 -9 6 -12 15 -9 8 4
15 12 15 20 0 7 13 20 28 28 16 8 34 22 41 30 12 14 10 16 -14 16 -16 0 -26 3
-22 6 3 4 -3 14 -15 24 -24 19 -17 40 13 40 11 0 22 7 25 15 4 8 17 15 30 15
13 0 24 4 24 9 0 5 15 13 33 16 38 8 127 55 127 67 0 4 -10 8 -22 9 l-23 0 23
11 c12 6 22 17 22 25 0 7 6 13 14 13 8 0 16 7 20 15 3 8 11 15 18 15 8 0 20 9
28 20 8 11 17 15 20 10 3 -5 31 12 63 38 56 46 56 47 28 50 -28 3 -28 4 -19
43 6 21 14 39 18 39 4 0 13 18 20 40 7 22 17 40 23 40 5 0 7 7 3 15 -4 10 4
17 27 23 l32 8 0 107 c0 59 2 103 3 97 6 -18 42 -11 42 8 0 10 5 23 11 29 6 6
12 23 14 39 1 15 8 30 14 32 6 2 11 10 11 17 0 8 7 20 15 29 23 23 19 30 -17
36 l-33 5 23 21 c24 22 25 27 37 112 7 55 15 63 59 66 23 1 25 4 25 68 0 54
-3 66 -15 64 -9 -1 -19 -9 -24 -16 -15 -24 -23 -4 -9 22 11 20 11 22 -3 10
-17 -14 -34 0 -23 18 3 6 1 10 -4 10 -6 0 -11 -6 -11 -14 0 -8 -10 -13 -25
-13 -31 0 -32 5 -2 17 17 7 18 9 4 9 -25 1 -87 -41 -87 -59 0 -8 -12 -24 -27
-35 -14 -11 -45 -37 -67 -57 -23 -21 -49 -40 -59 -44 -9 -3 -15 -10 -12 -15 4
-5 1 -9 -5 -9 -15 0 -41 -26 -33 -34 4 -3 -3 -6 -15 -6 -11 0 -22 -3 -24 -7
-5 -13 -82 -59 -109 -66 -14 -4 -37 -17 -51 -29 -37 -34 -86 -58 -103 -52 -8
4 -33 -3 -55 -15 -22 -11 -40 -18 -40 -16 0 10 -85 -38 -111 -62 -15 -13 -43
-28 -63 -33 -35 -8 -48 1 -23 17 15 9 101 119 143 183 17 25 47 69 67 97 20
29 37 54 36 55 0 2 4 15 10 30 19 51 113 159 173 199 55 38 61 40 77 25 17
-15 21 -14 58 16 22 18 49 49 59 68 11 19 25 40 32 46 8 5 15 25 17 43 1 18 8
37 14 41 7 4 12 9 11 11 -1 2 1 16 5 30 3 14 8 39 9 55 5 45 49 151 70 166 6
4 10 29 10 57 0 28 3 46 7 39 4 -6 13 7 20 33 7 24 17 50 22 57 6 8 6 12 -1
12 -6 0 -12 -5 -14 -12 -3 -8 -7 -8 -11 -2 -3 6 1 24 9 40 9 16 14 39 11 51
-2 12 0 27 4 35 4 7 3 18 -2 24 -7 9 -5 22 5 42 9 17 12 32 6 34 -16 5 1 48
19 48 14 0 14 2 1 10 -12 8 -10 10 9 10 18 0 21 3 12 13 -8 10 -7 17 1 25 8 8
6 15 -6 27 -9 9 -16 25 -16 34 0 10 -7 24 -15 31 -9 7 -15 20 -14 29 3 32 -1
41 -20 41 -11 0 -23 5 -27 12 -4 6 -3 8 3 5 10 -6 8 57 -3 131 -4 29 -7 31
-20 17 -20 -19 -34 -11 -27 15 3 11 1 20 -3 20 -5 0 -8 20 -6 45 2 25 0 45 -4
45 -5 0 -9 25 -9 55 0 47 3 55 19 55 15 0 17 5 12 27 -5 17 -3 29 6 35 8 5 9
11 3 16 -6 4 -18 23 -27 42 -15 31 -17 32 -17 11 -1 -26 -15 -20 -17 7 -1 10
-2 27 -3 39 -1 16 -8 23 -28 25 -20 2 -28 9 -29 24 -1 11 -6 29 -12 40 -11 19
-11 19 -12 -1 l-1 -20 -9 20 c-5 11 -9 35 -9 53 -1 17 -6 32 -12 32 -8 0 -8 4
0 14 9 11 9 16 0 21 -6 4 -15 1 -20 -6 -8 -13 -13 -6 -10 14 0 4 -19 7 -44 7
-35 0 -47 4 -51 18 -10 31 -49 107 -58 113 -4 4 -7 22 -4 42 3 25 0 33 -9 30
-17 -7 -83 16 -83 28 0 6 4 8 9 5 5 -4 7 3 4 14 -3 12 -14 20 -25 20 -13 0
-18 5 -15 14 3 7 0 19 -6 25 -8 8 -8 11 2 11 7 0 9 5 6 10 -4 6 -11 8 -16 5
-5 -4 -9 1 -9 10 0 9 -4 13 -10 10 -6 -4 -10 5 -10 19 0 20 5 26 23 27 17 1
18 2 4 6 -9 2 -15 8 -12 12 2 5 -7 23 -20 41 l-24 33 -9 -24 c-5 -13 -7 -31
-5 -39 2 -8 -3 -3 -11 12 -16 27 -33 29 -63 6 -6 -5 -14 -5 -17 0 -9 15 -56
11 -56 -4 0 -8 -4 -14 -10 -14 -5 0 -10 5 -10 11 0 6 -7 9 -15 5 -11 -4 -15 1
-15 18 0 13 -11 31 -24 42 -14 10 -22 22 -19 27 3 4 -5 11 -17 14 -13 3 -19
11 -16 19 3 8 -1 14 -9 14 -8 0 -15 5 -15 10 0 6 -22 10 -49 10 -27 0 -51 4
-53 10 -2 6 -8 6 -18 0 -13 -9 -13 -10 1 -10 11 0 14 -7 11 -28 -2 -18 -10
-29 -20 -29 -19 0 -53 29 -56 48 -2 19 -76 146 -76 134 -1 -5 -8 4 -17 20 -14
24 -18 26 -21 13 -2 -10 -13 -18 -25 -19 l-22 -1 22 -6 c16 -5 20 -11 14 -21
-8 -12 -12 -12 -25 2 -9 8 -16 24 -17 34 0 10 -3 13 -6 6 -5 -14 -53 28 -53
46 0 16 -39 76 -47 73 -3 -2 -12 10 -19 27 -8 20 -18 29 -27 25 -14 -5 -46 24
-37 35 3 3 -10 6 -27 7 -18 1 -33 -3 -33 -8 0 -5 -4 -7 -9 -4 -5 4 -11 1 -13
-6 -3 -8 -13 -2 -28 15 -13 14 -27 24 -31 21 -4 -2 -10 0 -14 6 -3 5 -1 10 5
10 6 0 8 5 5 10 -5 8 -11 8 -20 0 -19 -16 -80 -15 -99 1 -10 8 -32 28 -51 46
-18 17 -36 29 -39 26 -3 -4 -6 -2 -6 3 0 5 -13 23 -28 40 -19 21 -35 30 -51
27 -19 -3 -22 1 -18 16 3 15 -4 21 -36 31 -22 6 -49 13 -60 16 -27 5 -34 14
-18 23 10 7 11 13 2 27 -6 11 -11 13 -11 7 0 -23 -30 -14 -31 10 -1 16 -2 18
-6 5 -2 -10 -9 -18 -15 -18 -5 0 -7 7 -4 16 3 9 2 12 -5 9 -6 -4 -13 2 -16 14
-3 12 -12 21 -19 21 -8 0 -17 7 -20 15 -4 10 -13 13 -27 9 -16 -5 -19 -3 -14
10 4 10 1 16 -8 16 -11 0 -15 -13 -16 -52 -1 -35 -3 -45 -7 -30 -4 13 -11 23
-17 24 -19 1 -55 18 -55 25 0 5 -10 14 -21 22 -18 11 -23 11 -30 -1 -7 -10 -9
-10 -9 0 0 6 -7 12 -15 12 -8 0 -15 5 -15 10 0 6 16 10 36 10 32 0 35 2 24 15
-7 9 -18 14 -24 12 -6 -3 -18 1 -26 8 -8 7 -21 10 -27 8z m37 -93 c0 -5 -4
-10 -10 -10 -5 0 -10 5 -10 10 0 6 5 10 10 10 6 0 10 -4 10 -10z m-170 -120
c0 -5 -4 -10 -10 -10 -5 0 -10 5 -10 10 0 6 5 10 10 10 6 0 10 -4 10 -10z
m380 0 c0 -5 -4 -10 -10 -10 -5 0 -10 5 -10 10 0 6 5 10 10 10 6 0 10 -4 10
-10z m571 -273 c-13 -13 -26 -3 -16 12 3 6 11 8 17 5 6 -4 6 -10 -1 -17z
m-3031 -417 c0 -5 -4 -10 -10 -10 -5 0 -10 5 -10 10 0 6 5 10 10 10 6 0 10 -4
10 -10z m3950 -109 c0 -6 -4 -13 -10 -16 -5 -3 -10 1 -10 9 0 9 5 16 10 16 6
0 10 -4 10 -9z m-43 -43 c-3 -8 -6 -5 -6 6 -1 11 2 17 5 13 3 -3 4 -12 1 -19z
m-4157 -128 c0 -5 -4 -10 -10 -10 -5 0 -10 5 -10 10 0 6 5 10 10 10 6 0 10 -4
10 -10z m4750 -590 c0 -5 -4 -10 -10 -10 -5 0 -10 5 -10 10 0 6 5 10 10 10 6
0 10 -4 10 -10z m30 -15 c7 -9 8 -15 2 -15 -5 0 -12 7 -16 15 -3 8 -4 15 -2
15 2 0 9 -7 16 -15z m-4640 -49 c0 -3 -4 -8 -10 -11 -5 -3 -10 -1 -10 4 0 6 5
11 10 11 6 0 10 -2 10 -4z m4700 -266 c0 -5 -4 -10 -10 -10 -5 0 -10 5 -10 10
0 6 5 10 10 10 6 0 10 -4 10 -10z m-5303 -16 c-3 -3 -12 -4 -19 -1 -8 3 -5 6
6 6 11 1 17 -2 13 -5z m5310 -636 c-3 -8 -6 -5 -6 6 -1 11 2 17 5 13 3 -3 4
-12 1 -19z m-5507 -358 c0 -5 -4 -10 -10 -10 -5 0 -10 5 -10 10 0 6 5 10 10
10 6 0 10 -4 10 -10z m175 -49 c3 -5 1 -12 -5 -16 -5 -3 -10 1 -10 9 0 18 6
21 15 7z m-63 -147 c-1 -21 -12 -60 -25 -86 -21 -47 -23 -48 -68 -48 -25 0
-48 2 -51 5 -3 3 6 19 21 34 14 15 44 53 66 84 22 31 45 55 50 53 6 -2 9 -21
7 -42z m5488 -214 c0 -5 -7 -10 -15 -10 -8 0 -15 5 -15 10 0 6 7 10 15 10 8 0
15 -4 15 -10z m40 -20 c0 -5 -4 -10 -10 -10 -5 0 -10 5 -10 10 0 6 5 10 10 10
6 0 10 -4 10 -10z m50 -24 c0 -11 -19 -15 -25 -6 -3 5 1 10 9 10 9 0 16 -2 16
-4z m-135 -155 c3 -5 1 -12 -4 -15 -5 -3 -11 1 -15 9 -6 16 9 21 19 6z m-475
-181 c0 -5 -4 -10 -10 -10 -5 0 -10 5 -10 10 0 6 5 10 10 10 6 0 10 -4 10 -10z
m20 -47 c0 -38 -185 -181 -206 -160 -4 4 2 18 15 30 12 13 19 30 16 38 -11 29
89 105 142 107 25 1 33 -3 33 -15z m-4762 -665 c18 -18 15 -28 -8 -28 -13 0
-20 7 -20 20 0 23 10 26 28 8z m232 -342 c0 -3 -4 -8 -10 -11 -5 -3 -10 -1
-10 4 0 6 5 11 10 11 6 0 10 -2 10 -4z m30 -26 c0 -5 -8 -10 -17 -10 -15 0
-16 2 -3 10 19 12 20 12 20 0z m3896 -257 c-10 -10 -19 5 -10 18 6 11 8 11 12
0 2 -7 1 -15 -2 -18z m13 -111 c0 -20 -3 -30 -6 -22 -3 8 -11 19 -17 23 -8 6
-8 10 1 13 7 3 9 12 6 21 -4 11 -2 14 5 9 7 -4 12 -24 11 -44z m-529 -102 c0
-5 -4 -10 -10 -10 -5 0 -10 5 -10 10 0 6 5 10 10 10 6 0 10 -4 10 -10z"/>
<path d="M4136 7824 c-9 -24 -9 -24 29 -24 35 0 46 12 23 27 -23 14 -46 13
-52 -3z"/>
<path d="M4085 7590 c-3 -5 1 -10 9 -10 9 0 16 -4 16 -10 0 -5 -13 -10 -30
-10 -24 0 -30 -4 -30 -22 0 -12 8 -30 18 -41 12 -15 13 -18 2 -13 -8 4 -5 -1
8 -11 16 -13 20 -21 12 -29 -8 -8 -4 -13 15 -18 14 -4 23 -11 20 -16 -3 -6 3
-10 13 -10 11 0 23 -7 26 -16 3 -8 10 -13 16 -9 11 7 25 -39 15 -54 -3 -6 -1
-11 4 -11 6 0 10 -3 10 -7 -4 -22 3 -33 19 -34 9 0 12 -3 5 -5 -7 -3 -2 -15
14 -30 18 -18 28 -22 33 -14 10 17 0 61 -16 67 -8 3 -14 13 -14 24 0 25 -22
72 -37 82 -8 5 -11 12 -8 18 4 5 -3 9 -14 9 -12 0 -21 5 -21 10 0 6 7 10 15
10 8 0 15 5 15 10 0 6 -4 10 -9 10 -5 0 -11 7 -15 15 -3 8 0 14 6 12 7 -1 14
6 16 16 2 12 -3 17 -18 17 -13 0 -20 5 -17 13 2 6 11 11 20 9 10 -2 6 8 -13
28 -28 30 -72 40 -85 20z m155 -270 c0 -5 -5 -10 -11 -10 -5 0 -7 5 -4 10 3 6
8 10 11 10 2 0 4 -4 4 -10z"/>
<path d="M5704 7420 c0 -14 7 -20 23 -20 21 0 22 3 13 20 -6 11 -16 20 -23 20
-7 0 -13 -9 -13 -20z"/>
<path d="M4303 7219 c-9 -9 -8 -15 3 -27 18 -18 22 -14 15 16 -5 18 -9 20 -18
11z"/>
<path d="M2185 6640 c3 -5 8 -10 11 -10 2 0 4 5 4 10 0 6 -5 10 -11 10 -5 0
-7 -4 -4 -10z"/>
<path d="M1582 5265 c-9 -19 -9 -25 1 -26 6 0 3 -4 -8 -9 -11 -5 -14 -9 -7 -9
7 -1 10 -5 7 -11 -3 -5 1 -10 9 -10 12 0 16 11 16 45 0 25 -2 45 -3 45 -2 0
-9 -11 -15 -25z"/>
<path d="M1583 4831 c-9 -14 -9 -22 -2 -27 15 -9 21 1 17 26 -3 21 -3 21 -15
1z"/>
<path d="M1578 4513 c10 -4 9 -8 -5 -18 -17 -13 -17 -15 -1 -31 10 -10 21 -14
25 -10 4 4 1 11 -7 16 -10 7 -11 10 -2 10 6 0 12 9 12 20 0 13 -6 20 -17 19
-12 0 -13 -2 -5 -6z"/>
<path d="M1568 4423 c6 -2 18 -2 25 0 6 3 1 5 -13 5 -14 0 -19 -2 -12 -5z"/>
<path d="M1558 4403 c7 -3 16 -2 19 1 4 3 -2 6 -13 5 -11 0 -14 -3 -6 -6z"/>
<path d="M7257 3821 c-3 -12 -1 -21 3 -21 15 0 23 21 12 32 -6 6 -11 2 -15
-11z"/>
<path d="M6400 2623 c0 -17 4 -20 22 -15 16 4 18 7 8 10 -8 3 -18 10 -22 16
-5 6 -8 2 -8 -11z"/>
<path d="M2710 2591 c0 -6 5 -13 11 -17 6 -3 9 -17 6 -30 -2 -13 0 -24 4 -24
5 0 9 -5 9 -12 0 -21 32 -98 41 -98 13 0 11 67 -1 75 -6 4 -8 11 -5 16 4 5 -8
29 -26 54 -33 47 -39 52 -39 36z"/>
</g>
</svg>
