<?xml version="1.0" encoding="utf-8"?>
<!-- Svg Vector Icons : http://www.onlinewebfonts.com/icon -->
<!DOCTYPE svg PUBLIC "-//W3C//DTD SVG 1.1//EN" "http://www.w3.org/Graphics/SVG/1.1/DTD/svg11.dtd">
<svg version="1.1" xmlns="http://www.w3.org/2000/svg" xmlns:xlink="http://www.w3.org/1999/xlink" x="0px" y="0px" viewBox="0 0 256 256" enable-background="new 0 0 256 256" xml:space="preserve">
<metadata> Svg Vector Icons : http://www.onlinewebfonts.com/icon </metadata>
<g><g><g><path fill="#000000" d="M120,6.2c-15.3,1.4-27.8,4.9-41.1,11.4c-19,9.3-34.3,22.8-46.3,40.9c-2,3-4,6.1-4.5,6.8l-0.8,1.4l-8.7,0.1L10,67l3.4,12l3.4,12l-1.2,4.7c-5.8,22-5.5,45.8,0.7,67.5c8.7,30.5,29.5,57.1,56.1,72.1c12.7,7.2,25,11.5,39.7,13.7c7.8,1.2,23.9,1.2,31.8,0c25.6-3.9,48-15.6,66.1-34.3c30-31,41.5-76.3,30.4-119.1l-1.2-4.7l3.4-12l3.4-12l-8.1-0.1l-8.2-0.1l-0.8-1.4c-13.2-21.8-29.8-37.5-50.8-47.7C166.6,12,156.9,9,144.9,7.2C139.8,6.4,124.5,5.8,120,6.2z M144.2,20.8c15.1,2.6,29.4,8.2,41.6,16.1c9.6,6.2,19.8,16.4,27,26.9l2,2.9h-87.1h-87l2.4-3.4c13-18.4,31.5-32.8,49.8-38.7c6-1.9,15.3-4,21.8-4.7C121.5,19.1,137.3,19.6,144.2,20.8z M224.2,104.2c0,0.1-1.5,4.4-3.4,9.6l-3.4,9.5l-30.6,0.1l-30.6,0.1l33.7-9.7C222.8,104.4,224.2,104,224.2,104.2z M103.1,108.7c0,0.1-1.2,3.4-2.7,7.4l-2.7,7.2l-30.3,0c-16.7,0-30,0-29.6-0.1c1.5-0.4,64.1-14.6,64.7-14.6C102.8,108.6,103.1,108.7,103.1,108.7z M133.9,116.3c5.6,1.3,10.7,4.4,15.9,9.6l4.6,4.6h36.9h36.9l0.5-1.9c2.8-10.1,3.4-11.8,3.8-10.4c0.6,2.2-0.1,21.4-1,27c-3.1,19.9-11.5,38.7-23.8,54c-4.1,5.1-11.8,12.6-16.4,16.2C177,226.3,158,233.8,139.2,236c-19.8,2.3-41.1-0.9-56.7-8.7c-32-16-54.6-49.1-59-86.1c-0.7-6.4-1-20.8-0.4-23c0.3-1.2,1,0.7,3.7,10.5l0.5,1.9h36.9h36.9l4.6-4.6c3.5-3.5,5.5-5.1,8.7-6.7C121.1,115.7,127.3,114.8,133.9,116.3z"/><path fill="#000000" d="M119.8,176.7c-0.8,0.1-3.6,0.4-6.1,0.7c-8.2,0.9-17.7,4-20.8,6.8c-3.2,2.8-3.5,5.3-1,8c3.2,3.6,10.1,6.2,20.5,7.9c6.9,1.1,24.5,1.1,31.4,0c10.4-1.7,17.2-4.3,20.5-7.9c2.2-2.5,2.2-4.3,0-6.8c-4.8-5.3-16.8-8.5-33.7-8.8C125.4,176.6,120.6,176.6,119.8,176.7z"/></g></g></g>
</svg>