<?xml version="1.0" standalone="no"?>
<!DOCTYPE svg PUBLIC "-//W3C//DTD SVG 20010904//EN"
 "http://www.w3.org/TR/2001/REC-SVG-20010904/DTD/svg10.dtd">
<svg version="1.0" xmlns="http://www.w3.org/2000/svg"
 width="1280.000000pt" height="1280.000000pt" viewBox="0 0 1280.000000 1280.000000"
 preserveAspectRatio="xMidYMid meet">
<metadata>
Created by potrace 1.15, written by Peter Selinger 2001-2017
</metadata>
<g transform="translate(0.000000,1280.000000) scale(0.100000,-0.100000)"
fill="#000000" stroke="none">
<path d="M6095 12792 c-55 -1 -109 -6 -120 -11 -11 -5 -143 -20 -293 -33
l-274 -23 6 -35 c183 -1090 283 -1800 275 -1961 -7 -129 -73 -245 -393 -689
-490 -679 -716 -1052 -860 -1415 -138 -349 -183 -615 -173 -1029 7 -317 48
-549 142 -802 205 -549 583 -861 1070 -881 213 -9 356 30 643 177 84 43 149
74 146 68 -12 -19 -187 -128 -263 -165 -179 -85 -282 -108 -481 -107 -127 0
-170 4 -237 21 -440 117 -792 488 -989 1043 -219 621 -147 1265 225 2009 125
248 267 480 566 927 268 399 360 559 406 699 19 60 21 82 16 179 -9 162 -72
523 -209 1201 -158 787 -141 711 -164 707 -10 -2 -128 -32 -262 -68 -133 -35
-255 -66 -270 -68 -15 -2 -71 -17 -125 -35 -53 -17 -102 -31 -109 -31 -6 0
-19 -6 -27 -14 -9 -7 -131 -55 -271 -106 -140 -52 -257 -95 -259 -96 -2 -2 78
-187 179 -411 352 -786 518 -1175 586 -1378 l36 -110 -12 -84 c-20 -133 -61
-256 -263 -796 -160 -426 -215 -589 -286 -835 -156 -549 -183 -972 -90 -1425
95 -460 320 -906 598 -1185 290 -293 632 -414 996 -355 245 40 394 128 716
425 102 94 95 72 -22 -66 -103 -120 -240 -230 -374 -296 -626 -313 -1403 81
-1810 917 -154 315 -219 613 -219 1010 0 229 9 333 50 575 55 316 127 572 329
1164 213 626 249 798 200 948 -25 74 -127 309 -233 533 -98 208 -609 1235
-621 1247 -4 5 -116 -55 -249 -132 -133 -77 -246 -140 -251 -140 -14 0 -189
-113 -221 -141 -13 -13 -123 -92 -245 -177 -121 -86 -221 -156 -223 -158 -2
-1 108 -138 245 -305 711 -873 996 -1246 1025 -1344 22 -74 13 -363 -21 -705
-67 -660 -81 -867 -81 -1156 0 -584 92 -987 321 -1399 320 -578 772 -968 1241
-1071 101 -22 309 -22 413 1 332 71 553 247 793 633 35 56 65 102 67 102 8 0
-34 -109 -70 -180 -142 -284 -389 -489 -681 -567 -86 -23 -120 -26 -259 -27
-117 0 -184 4 -249 17 -318 64 -628 236 -905 502 -438 420 -663 956 -722 1715
-16 210 -6 751 21 1085 29 371 37 726 17 836 -8 47 -24 106 -34 130 -23 51
-176 250 -358 464 -292 345 -952 1090 -965 1090 -13 0 -590 -575 -590 -587 0
-6 -81 -107 -180 -226 -98 -118 -177 -219 -174 -223 2 -5 44 -36 92 -71 953
-683 1485 -1086 1539 -1166 59 -88 98 -244 168 -672 120 -725 166 -961 236
-1215 158 -572 351 -919 713 -1281 330 -330 692 -546 1061 -632 95 -22 133
-26 280 -26 184 0 257 12 402 70 142 56 300 166 401 280 71 79 167 275 233
474 28 85 54 157 56 160 8 9 -8 -123 -28 -222 -67 -338 -356 -641 -704 -739
-366 -103 -788 -43 -1220 173 -272 137 -518 346 -716 610 -118 157 -179 259
-278 463 -189 385 -292 736 -451 1525 -136 676 -181 821 -287 921 -52 49 -199
158 -433 321 -271 188 -1204 808 -1217 808 -6 0 -71 -105 -144 -232 -74 -128
-141 -240 -149 -249 -18 -19 -131 -240 -130 -254 0 -5 -52 -121 -116 -258 -63
-137 -114 -251 -112 -253 6 -5 295 -116 923 -356 765 -291 899 -353 1024 -472
52 -50 72 -80 116 -171 30 -60 81 -184 115 -275 172 -463 447 -1028 643 -1320
234 -349 530 -652 852 -872 806 -552 1719 -555 2125 -7 118 158 172 307 214
589 38 249 40 253 54 144 32 -247 -10 -452 -135 -653 -190 -304 -550 -494
-982 -519 -641 -37 -1199 189 -1677 679 -340 350 -571 711 -962 1509 -230 469
-306 605 -410 728 -49 58 -98 87 -264 153 -359 143 -1726 606 -1733 586 -2 -7
-31 -115 -65 -242 -33 -126 -69 -252 -79 -280 -21 -58 -65 -251 -63 -280 1
-11 -20 -142 -46 -292 l-48 -272 40 -6 c61 -7 170 -19 861 -90 887 -92 1013
-112 1166 -186 111 -54 178 -124 353 -369 170 -239 270 -367 445 -575 163
-194 520 -553 653 -658 485 -382 1007 -605 1542 -656 255 -25 519 1 741 74
381 125 634 380 726 733 37 141 36 358 -3 640 -5 41 -8 76 -5 78 8 9 68 -169
84 -251 21 -103 23 -336 4 -430 -97 -485 -524 -803 -1206 -900 -134 -19 -406
-19 -546 1 -357 49 -724 204 -1065 447 -339 242 -608 504 -1104 1072 -375 430
-520 574 -637 633 -93 48 -431 81 -1491 148 -316 19 -576 34 -578 32 -9 -9 -5
-829 4 -841 5 -7 20 -137 33 -289 13 -153 27 -278 32 -278 4 0 277 43 605 95
921 148 1048 165 1229 172 296 11 338 -7 678 -290 377 -315 811 -614 1149
-792 242 -128 542 -238 821 -301 l100 -22 -138 -1 -138 -1 -122 46 c-375 143
-665 305 -1287 723 -637 427 -730 477 -885 475 -143 -2 -524 -67 -1279 -220
-744 -150 -691 -137 -688 -160 2 -10 32 -128 68 -262 35 -133 66 -255 68 -270
2 -15 17 -71 35 -125 17 -53 31 -102 31 -109 0 -6 6 -19 14 -27 7 -9 56 -132
107 -273 52 -142 97 -258 101 -258 3 0 294 128 645 284 864 384 1017 446 1182
481 168 35 256 15 551 -122 447 -208 830 -352 1200 -452 545 -146 1096 -160
1585 -40 969 238 1538 932 1314 1603 -64 192 -171 352 -404 605 l-40 44 33
-19 c202 -115 420 -405 492 -655 28 -95 38 -297 20 -407 -34 -209 -150 -429
-334 -628 -102 -111 -245 -234 -273 -234 -15 0 -23 -6 -23 -17 0 -24 -178
-139 -339 -220 -222 -111 -493 -186 -766 -214 -160 -16 -489 -6 -666 20 -372
55 -683 139 -1224 333 -620 222 -776 268 -925 268 -41 0 -93 -5 -115 -11 -61
-17 -335 -135 -564 -244 -233 -110 -1222 -602 -1233 -614 -5 -4 55 -116 132
-249 77 -133 140 -246 140 -251 0 -14 113 -190 138 -216 11 -11 90 -121 177
-245 87 -124 159 -227 161 -228 1 -2 67 50 146 115 660 547 1153 933 1346
1052 136 85 139 85 302 84 141 -1 259 -11 865 -72 699 -71 1042 -82 1304 -42
688 105 1304 442 1682 921 139 177 243 393 290 605 22 97 17 323 -9 420 -47
174 -175 377 -315 497 -99 86 -133 110 -297 212 -85 52 -162 100 -170 105 -42
27 98 -25 187 -69 577 -284 803 -765 618 -1316 -86 -259 -258 -526 -485 -754
-180 -180 -345 -299 -575 -410 -346 -169 -679 -245 -1179 -271 -253 -14 -521
-3 -1056 42 -411 35 -723 42 -831 21 -37 -8 -89 -27 -117 -43 -112 -64 -419
-312 -787 -634 -436 -383 -745 -660 -743 -667 6 -15 580 -588 590 -588 5 0
107 -81 226 -180 204 -170 217 -179 233 -163 9 10 123 169 255 353 621 873
903 1218 1035 1268 76 28 244 62 549 111 1168 189 1398 240 1712 382 298 133
618 358 869 608 565 565 747 1181 501 1696 -89 186 -178 293 -329 395 -100 67
-272 152 -408 200 -60 21 -105 39 -100 39 6 1 55 -10 110 -23 485 -118 774
-388 860 -806 23 -111 24 -331 1 -457 -72 -402 -288 -798 -605 -1113 -249
-246 -573 -467 -881 -598 -274 -118 -529 -182 -1075 -272 -508 -84 -679 -122
-918 -201 -113 -38 -178 -83 -298 -205 -201 -207 -443 -544 -841 -1174 -85
-135 -171 -271 -191 -302 -21 -31 -37 -61 -37 -66 0 -5 100 -67 223 -137 122
-70 236 -138 252 -150 41 -29 241 -135 257 -135 7 0 124 -52 261 -116 137 -63
251 -113 254 -111 2 3 93 243 202 534 351 935 492 1249 612 1357 65 58 221
136 684 341 624 276 918 420 1140 558 546 340 1031 996 1183 1602 44 178 55
281 49 462 -6 188 -31 302 -100 447 -59 125 -114 203 -216 309 -140 145 -268
217 -486 272 -104 26 -306 55 -403 56 -66 1 -67 1 -27 12 22 5 121 10 220 10
164 1 189 -2 284 -26 397 -104 637 -377 737 -837 26 -119 27 -501 1 -640 -67
-364 -189 -650 -407 -955 -258 -362 -565 -637 -955 -854 -138 -78 -288 -150
-625 -303 -417 -189 -725 -354 -846 -454 -83 -68 -206 -275 -313 -531 -108
-256 -280 -765 -481 -1426 -6 -19 -5 -29 3 -32 7 -2 116 -31 242 -65 127 -33
253 -69 280 -79 58 -21 251 -65 280 -63 11 1 142 -20 292 -46 l272 -48 6 50
c3 28 19 197 35 376 87 938 157 1399 241 1576 40 85 151 189 521 485 571 457
754 615 963 830 208 214 320 369 456 634 254 491 372 1047 314 1479 -36 271
-117 475 -264 658 -133 168 -346 310 -546 364 -104 28 -435 26 -590 -4 -60
-12 -111 -20 -113 -17 -7 7 213 73 297 89 95 18 279 21 367 5 544 -96 914
-675 914 -1430 0 -338 -64 -628 -215 -975 -75 -173 -141 -293 -246 -449 -186
-276 -395 -488 -879 -891 -480 -400 -706 -617 -764 -732 -95 -191 -160 -570
-196 -1147 -13 -220 -41 -917 -37 -921 8 -9 829 -5 840 4 7 5 136 19 287 32
151 13 276 24 278 25 2 2 -24 159 -57 351 -206 1193 -238 1567 -151 1750 42
87 142 232 401 584 382 518 540 752 674 1000 222 413 325 838 325 1344 0 822
-329 1416 -880 1591 -288 91 -504 70 -853 -85 -130 -57 -112 -33 38 49 182
101 342 144 530 143 272 0 503 -107 730 -336 278 -280 459 -687 506 -1134 15
-147 6 -531 -15 -672 -44 -280 -130 -547 -266 -815 -109 -215 -204 -367 -496
-790 -317 -457 -482 -726 -519 -845 -23 -73 -32 -357 -16 -518 32 -315 85
-589 299 -1532 6 -27 13 -34 28 -32 10 2 128 32 262 68 133 35 255 66 270 68
15 2 71 17 125 35 53 17 102 31 109 31 6 0 19 6 27 14 9 7 132 56 273 107 142
52 258 97 258 100 0 4 -93 211 -206 460 -344 759 -477 1073 -511 1203 -12 46
-14 90 -10 181 9 191 45 315 258 872 207 543 289 790 349 1063 147 660 95
1204 -169 1755 -326 678 -833 1027 -1367 940 -113 -18 -249 -64 -320 -107 -54
-32 -129 -95 -286 -238 l-83 -75 53 62 c346 405 801 514 1257 303 371 -171
706 -549 884 -997 143 -360 211 -801 182 -1163 -29 -341 -96 -614 -282 -1137
-253 -713 -323 -949 -322 -1093 0 -255 164 -686 517 -1360 229 -436 287 -545
295 -552 4 -5 116 55 249 132 133 77 246 140 251 140 14 0 189 113 221 141 13
13 123 92 245 177 121 86 222 156 223 158 2 1 -108 137 -245 301 -617 740
-846 1049 -947 1277 l-31 71 1 180 c0 146 9 256 47 585 99 858 109 1195 46
1560 -132 775 -626 1528 -1184 1805 -194 96 -323 128 -525 129 -147 0 -205 -9
-350 -56 -104 -33 -171 -64 -240 -111 -61 -42 -211 -188 -273 -267 -67 -86
-74 -93 -47 -44 36 67 119 173 191 244 319 315 787 363 1276 130 410 -195 737
-536 977 -1017 269 -541 323 -973 246 -1958 -41 -517 -47 -944 -16 -1035 98
-287 358 -633 976 -1300 124 -135 243 -263 262 -285 l36 -40 229 226 c266 263
363 363 363 373 0 4 81 105 180 224 98 118 177 219 174 223 -2 4 -140 103
-307 220 -795 560 -1156 851 -1272 1027 -57 86 -92 236 -159 677 -126 824
-176 1064 -297 1415 -85 246 -260 553 -454 795 -98 122 -310 336 -425 429
-209 167 -449 304 -652 370 -163 53 -262 69 -428 69 -194 0 -322 -30 -485
-111 -237 -118 -379 -264 -502 -516 -48 -98 -49 -84 -2 29 78 190 216 360 378
463 409 262 1026 213 1572 -124 270 -167 596 -492 782 -780 235 -364 354 -720
507 -1519 105 -546 178 -851 225 -944 76 -151 283 -356 585 -578 138 -101 415
-285 728 -482 151 -94 290 -183 310 -196 20 -14 42 -25 48 -25 6 0 72 105 145
232 74 128 141 240 149 249 18 19 131 240 130 254 0 5 52 120 115 256 63 136
115 250 115 252 0 3 -46 22 -102 42 -1149 419 -1598 613 -1754 757 -86 80
-155 210 -395 753 -277 628 -454 962 -643 1217 -369 495 -987 905 -1558 1032
-497 111 -923 9 -1221 -291 -168 -171 -242 -311 -295 -563 -8 -37 -10 -40 -11
-15 -2 72 53 253 113 372 228 454 839 672 1505 537 479 -96 1015 -414 1351
-798 244 -281 361 -475 706 -1171 273 -552 385 -753 465 -835 169 -172 540
-347 1164 -549 314 -101 720 -227 749 -233 16 -3 27 28 91 262 40 146 78 279
83 295 16 44 55 227 54 250 -1 11 20 142 46 292 l48 272 -45 5 c-26 3 -172 17
-326 31 -947 85 -1430 158 -1622 245 -91 42 -212 165 -463 474 -407 501 -492
601 -683 806 -195 208 -424 403 -607 517 -360 223 -802 376 -1229 424 -149 17
-468 6 -591 -19 -448 -94 -751 -331 -916 -714 -47 -110 -66 -210 -67 -367 -2
-148 -14 -133 -16 20 -3 289 108 544 328 751 216 203 517 335 886 389 112 16
423 17 530 0 440 -67 793 -197 1117 -410 289 -191 517 -407 958 -910 447 -511
617 -682 731 -738 204 -101 535 -164 1029 -197 235 -16 1001 -49 1006 -43 9 9
5 829 -4 840 -5 7 -19 136 -32 287 -13 151 -24 276 -25 278 -1 1 -215 -33
-476 -77 -901 -152 -1340 -202 -1514 -172 -118 21 -232 89 -660 396 -615 440
-862 600 -1150 740 -654 320 -1538 360 -2154 100 -434 -184 -702 -507 -777
-939 -21 -117 -13 -258 21 -386 37 -141 38 -150 20 -110 -9 19 -28 80 -42 135
-23 86 -27 120 -26 245 0 123 4 159 25 240 150 560 761 988 1513 1061 175 17
527 7 684 -20 361 -62 643 -168 1021 -384 69 -40 280 -175 470 -301 555 -368
783 -506 898 -545 240 -81 697 -39 1477 136 646 144 620 138 617 159 -2 10
-32 128 -68 262 -35 133 -66 255 -68 270 -2 15 -17 71 -35 125 -17 53 -31 102
-31 109 0 6 -6 19 -14 27 -7 9 -55 131 -106 271 -52 140 -95 257 -97 259 -1 2
-38 -12 -80 -31 -43 -20 -212 -97 -376 -172 -662 -302 -1074 -472 -1294 -532
-212 -58 -307 -36 -916 208 -191 76 -367 146 -390 154 -584 213 -948 287
-1407 288 -209 0 -264 -3 -375 -22 -616 -106 -1174 -409 -1465 -797 -115 -153
-191 -314 -226 -479 -16 -77 -22 -254 -12 -351 5 -44 5 -51 -2 -25 -42 164
-10 413 79 620 246 571 863 990 1646 1116 132 22 520 30 657 14 314 -35 530
-91 1128 -290 505 -169 609 -201 815 -251 114 -28 141 -31 215 -25 216 15 527
124 970 338 188 92 897 462 912 477 5 4 -55 116 -132 249 -77 133 -140 246
-140 251 0 14 -113 190 -138 216 -11 11 -90 121 -177 245 -87 124 -159 226
-161 228 -1 2 -121 -95 -266 -215 -716 -593 -1157 -928 -1335 -1011 -58 -27
-59 -27 -273 -27 -184 1 -261 6 -530 38 -545 65 -617 70 -980 71 -433 0 -666
-28 -970 -115 -737 -213 -1414 -826 -1569 -1420 -67 -260 -41 -540 70 -761 11
-21 17 -38 14 -38 -13 0 -78 159 -102 249 -22 83 -26 118 -27 256 -1 134 3
177 22 264 94 420 363 821 737 1100 331 248 709 418 1100 496 310 62 675 69
1280 24 212 -16 396 -22 630 -23 299 -1 335 1 385 18 280 96 619 350 1264 946
98 91 222 204 275 252 53 48 96 92 96 97 0 13 -574 591 -587 591 -5 0 -107 81
-226 180 -118 98 -219 177 -223 175 -4 -3 -40 -51 -80 -108 -581 -817 -918
-1263 -1081 -1430 -137 -140 -189 -155 -932 -272 -652 -103 -988 -183 -1336
-318 -255 -99 -448 -205 -644 -350 -137 -103 -351 -308 -469 -450 -229 -275
-398 -606 -463 -907 -14 -65 -19 -128 -19 -270 0 -162 3 -196 24 -274 90 -344
275 -558 632 -731 128 -62 114 -63 -34 -2 -121 49 -240 127 -330 215 -373 364
-414 989 -107 1619 117 240 255 427 461 629 209 203 432 365 680 493 281 146
570 238 1014 325 99 19 284 55 412 80 260 51 494 108 658 161 139 45 211 93
341 228 216 222 428 515 804 1112 101 160 198 312 217 340 18 27 33 55 33 61
0 6 -100 69 -222 139 -123 70 -236 138 -253 150 -41 29 -241 135 -257 135 -7
0 -123 52 -259 115 -136 63 -249 115 -252 115 -2 0 -11 -19 -20 -42 -481
-1284 -677 -1754 -777 -1862 -75 -81 -199 -148 -640 -346 -426 -191 -557 -252
-720 -338 -709 -371 -1097 -719 -1389 -1246 -163 -295 -264 -605 -298 -914
-14 -132 -15 -173 -5 -285 20 -217 73 -388 169 -551 58 -98 249 -294 336 -345
123 -72 322 -136 517 -166 l95 -15 -115 5 c-520 22 -897 382 -1002 955 -28
154 -30 434 -4 600 42 275 138 557 263 775 218 379 501 695 836 935 204 145
376 237 1019 548 343 166 636 340 720 428 115 122 273 452 423 884 75 215 163
489 331 1028 10 33 11 44 1 47 -7 2 -124 34 -262 71 -137 37 -263 72 -280 79
-37 16 -233 58 -260 57 -11 -1 -142 20 -292 46 l-272 48 -5 -45 c-4 -26 -26
-248 -51 -496 -87 -860 -144 -1298 -190 -1452 -35 -116 -144 -226 -580 -583
-401 -327 -551 -457 -729 -630 -546 -531 -803 -982 -915 -1605 -103 -579 -5
-1109 270 -1449 127 -157 329 -288 544 -353 80 -24 107 -27 240 -27 151 -1
249 10 404 45 46 11 85 18 87 16 6 -5 -158 -55 -241 -72 -104 -23 -277 -30
-376 -16 -517 76 -886 525 -995 1211 -24 150 -24 466 0 625 68 456 289 954
592 1335 112 141 414 433 693 670 331 281 503 440 623 578 119 135 133 156
164 238 77 205 125 528 158 1054 17 261 48 971 44 976 -4 4 -608 9 -723 6z
m26 -5752 c23 -129 75 -281 173 -502 34 -78 4 -34 -48 70 -87 175 -140 354
-150 507 -6 86 -1 70 25 -75z m195 -47 c0 -132 6 -231 17 -298 28 -172 28
-174 12 -120 -43 146 -61 386 -42 548 5 37 9 67 10 67 1 0 2 -89 3 -197z m169
-8 c-18 -71 -40 -179 -48 -240 -11 -81 -15 -97 -16 -60 -1 75 26 227 60 339
17 54 32 97 34 95 2 -2 -12 -62 -30 -134z m-530 -60 c58 -121 153 -269 248
-385 43 -54 50 -65 23 -40 -123 115 -255 317 -322 498 -24 61 -33 111 -12 62
6 -14 34 -74 63 -135z m-203 -66 c74 -101 229 -255 351 -348 54 -41 97 -76 97
-78 0 -15 -182 117 -274 200 -81 73 -188 208 -231 291 -14 28 -20 43 -13 33 7
-11 39 -54 70 -98z m852 -10 c-15 -35 -42 -109 -61 -164 -58 -163 -89 -213
-46 -72 39 126 119 314 130 303 2 -1 -9 -32 -23 -67z m-659 -374 c50 -20 139
-55 198 -76 109 -39 169 -67 117 -54 -152 38 -406 142 -465 190 -15 12 -10 11
20 -3 22 -11 81 -36 130 -57z m54 -151 c8 -7 -63 -2 -94 7 -20 5 -9 6 30 2 33
-3 62 -7 64 -9z m466 -12 c-3 -3 -11 0 -18 7 -9 10 -8 11 6 5 10 -3 15 -9 12
-12z m-397 1 c-10 -2 -28 -2 -40 0 -13 2 -5 4 17 4 22 1 32 -1 23 -4z m478
-51 c-4 -3 -14 2 -24 12 -16 18 -16 18 6 6 13 -6 21 -14 18 -18z m0 -39 c-7
-7 -26 7 -26 19 0 6 6 6 15 -2 9 -7 13 -15 11 -17z m-93 -63 c-3 -12 -8 -19
-11 -16 -5 6 5 36 12 36 2 0 2 -9 -1 -20z m44 -22 c-3 -8 -6 -5 -6 6 -1 11 2
17 5 13 3 -3 4 -12 1 -19z m202 -141 c70 -103 137 -274 167 -426 20 -104 15
-323 -11 -416 -23 -84 -96 -235 -150 -310 -147 -206 -384 -387 -693 -529
l-101 -46 -118 1 -118 1 90 23 c357 91 651 264 831 490 136 169 202 346 211
560 9 212 -26 354 -153 628 -42 89 -78 169 -82 177 -8 21 87 -94 127 -153z"/>
</g>
</svg>
