<?xml version="1.0" encoding="UTF-8" standalone="no" ?>
<!DOCTYPE svg PUBLIC "-//W3C//DTD SVG 1.1//EN" "http://www.w3.org/Graphics/SVG/1.1/DTD/svg11.dtd">
<svg xmlns="http://www.w3.org/2000/svg" xmlns:xlink="http://www.w3.org/1999/xlink" version="1.1" width="1080" height="1080" viewBox="0 0 1080 1080" xml:space="preserve">
<desc>Created with Fabric.js 5.2.4</desc>
<defs>
</defs>
<g transform="matrix(1 0 0 1 540 540)" id="459361fb-19ba-4a6e-910b-2f9071d59575"  >
<rect style="stroke: none; stroke-width: 1; stroke-dasharray: none; stroke-linecap: butt; stroke-dashoffset: 0; stroke-linejoin: miter; stroke-miterlimit: 4; fill: rgb(255,255,255); fill-rule: nonzero; opacity: 1; visibility: hidden;" vector-effect="non-scaling-stroke"  x="-540" y="-540" rx="0" ry="0" width="1080" height="1080" />
</g>
<g transform="matrix(1 0 0 1 540 540)" id="c0d497f4-c0ad-490f-937c-91d5a2bf0125"  >
</g>
<g transform="matrix(10.95 0 0 10.27 540 664.1)"  >
<g style="" vector-effect="non-scaling-stroke"   >
		<g transform="matrix(1 0 0 1 2.51 -13.14)"  >
<path style="stroke: none; stroke-width: 1; stroke-dasharray: none; stroke-linecap: butt; stroke-dashoffset: 0; stroke-linejoin: miter; stroke-miterlimit: 4; fill: rgb(0,0,0); fill-rule: nonzero; opacity: 1;" vector-effect="non-scaling-stroke"  transform=" translate(-50, -50)" d="M 50 5.027 C 25.202 5.027 5.027 25.202 5.027 50 C 5.027 74.798 25.202 94.973 50 94.973 C 74.798 94.973 94.973 74.798 94.973 50 C 94.973 25.201999999999998 74.798 5.027 50 5.027 z M 91.973 50 C 91.973 57.019999999999996 90.232 63.637 87.173 69.458 C 86.91 68.685 86.434 67.768 85.768 66.731 C 84.493 64.756 82.523 62.35099999999999 80.111 59.73799999999999 C 80.997 56.46699999999999 81.477 53.025999999999996 81.477 49.47299999999999 C 81.477 42.70299999999999 79.757 36.33299999999999 76.73700000000001 30.772999999999993 C 75.843 28.81299999999999 68.48 15.671999999999992 52.43200000000001 8.10299999999999 C 74.447 9.367 91.973 27.672 91.973 50 z M 58.586 50 C 58.586 54.742 54.742 58.586 50 58.586 C 45.258 58.586 41.414 54.742 41.414 50 C 41.414 45.258 45.258 41.414 50 41.414 C 54.742 41.414 58.586 45.258 58.586 50 z M 41.096 27.272 C 39.866 32.272 38.775999999999996 37.732 37.965999999999994 43.062 C 32.87599999999999 47.14 28.197999999999993 51.211 24.279999999999994 55.059 C 20.414999999999992 43.23 25.331999999999994 29.953999999999997 36.60799999999999 23.682 C 38.58599999999999 22.584999999999997 40.64499999999999 21.764999999999997 42.73599999999999 21.212 C 42.171 23.123 41.62 25.156 41.096 27.272 z M 34.714 68.901 C 39.655 67.453 45.016999999999996 65.65299999999999 50.033 63.675999999999995 C 56.123000000000005 66.012 62.014 68.122 67.313 69.56099999999999 C 59.05200000000001 78.868 45.109 81.324 34.004000000000005 74.756 C 31.984000000000005 73.558 30.184000000000005 72.128 28.610000000000007 70.531 C 30.561 70.057 32.602 69.516 34.714 68.901 z M 61.803 43.062 L 61.806 43.062 C 60.836 36.611999999999995 59.666 30.522 58.306 25.201999999999998 C 70.476 27.802 79.48599999999999 38.721999999999994 79.246 51.622 C 79.20299999999999 53.788 78.896 55.887 78.368 57.894 C 77.00699999999999 56.486 75.54899999999999 55.038 73.997 53.568 C 70.253 50.033 66.041 46.394 61.803 43.062 z M 48.342 8.069 C 47.824999999999996 8.673 47.29 9.507000000000001 46.745999999999995 10.542000000000002 C 45.66799999999999 12.602000000000002 44.55799999999999 15.442000000000002 43.48499999999999 18.781000000000002 C 40.108999999999995 19.656000000000002 36.79299999999999 20.996000000000002 33.62899999999999 22.834000000000003 C 27.77499999999999 26.234 23.130999999999993 30.921000000000003 19.83999999999999 36.325 C 18.594999999999988 38.082 10.93499999999999 51.040000000000006 12.443999999999988 68.708 C 9.624 63.071 8.027 56.72 8.027 50 C 8.027 27.412 25.965 8.944 48.342 8.069 z M 50 91.973 C 35.037 91.973 21.887 84.097 14.453000000000003 72.279 C 15.237000000000004 72.425 16.234 72.469 17.410000000000004 72.419 C 19.723000000000003 72.317 22.735000000000003 71.843 26.143000000000004 71.1 C 28.643000000000004 73.646 31.514000000000003 75.90899999999999 34.775000000000006 77.75699999999999 C 40.665000000000006 81.094 47.05500000000001 82.73799999999999 53.382000000000005 82.85099999999998 C 55.535000000000004 83.03999999999998 70.685 83.11199999999998 85.22300000000001 72.78399999999999 C 77.735 84.32 64.748 91.973 50 91.973 z" stroke-linecap="round" />
</g>
		<g transform="matrix(1 0 0 1 -3.86 50.29)" style=""  >
		<text xml:space="preserve" font-family="'Helvetica Neue', Helvetica, Arial-Unicode, Arial, Sans-serif" font-size="5" font-style="normal" font-weight="bold" style="stroke: none; stroke-width: 1; stroke-dasharray: none; stroke-linecap: butt; stroke-dashoffset: 0; stroke-linejoin: miter; stroke-miterlimit: 4; fill: rgb(0,0,0); fill-rule: nonzero; opacity: 1; white-space: pre;" ><tspan x="-43.63" y="1.57" >Created by Juan Pablo Pérez Beltrán</tspan></text>
</g>
		<g transform="matrix(1 0 0 1 -21.24 55.29)" style=""  >
		<text xml:space="preserve" font-family="'Helvetica Neue', Helvetica, Arial-Unicode, Arial, Sans-serif" font-size="5" font-style="normal" font-weight="bold" style="stroke: none; stroke-width: 1; stroke-dasharray: none; stroke-linecap: butt; stroke-dashoffset: 0; stroke-linejoin: miter; stroke-miterlimit: 4; fill: rgb(0,0,0); fill-rule: nonzero; opacity: 1; white-space: pre;" ><tspan x="-26.25" y="1.57" >from the Noun Project</tspan></text>
</g>
</g>
</g>
</svg>